# xmcd
#
# Track frame offsets: 
#        150
#        16445
#        37750
#        71515
#        93932
#        113397
#        138447
#        152885
#        168955
#        188945
#
# Disc length: 2983 seconds
#
# Revision: 0
# Processed by: cddbd v1.5PL3 Copyright (c) Steve Scherf et al.
# Submitted via: ExactAudioCopy v0.95a4
#
DISCID=740ba50a
DTITLE=Big Time Sarah - Crying
DYEAR=1993
DGENRE=Blues
TTITLE0=Undecided
TTITLE1=30 Days In Jail
TTITLE2=Crying
TTITLE3=Hochie Coochie Woman
TTITLE4=Jelly Roll Working
TTITLE5=Blues All Alone
TTITLE6=You Got Me Running
TTITLE7=Let The Good Times Roll
TTITLE8=The Thrill Is Gone
TTITLE9=Song For T.J.
EXTD=
EXTT0=
EXTT1=
EXTT2=
EXTT3=
EXTT4=
EXTT5=
EXTT6=
EXTT7=
EXTT8=
EXTT9=
PLAYORDER=
